<?xml version="1.0" encoding="UTF-8" standalone="no"?>
<!-- Created with Inkscape (http://www.inkscape.org/) -->

<svg
   width="73.354332mm"
   height="68.124435mm"
   viewBox="0 0 73.354332 68.124435"
   version="1.1"
   id="svg1"
   xml:space="preserve"
   xmlns="http://www.w3.org/2000/svg"
   xmlns:svg="http://www.w3.org/2000/svg"><defs
     id="defs1" /><g
     id="layer1"
     transform="translate(-68.531952,-121.51007)"><path
       style="fill:#ffffff;fill-opacity:1;stroke-width:1"
       d="m 75.663627,168.30742 18.270659,-6.04494 -1.765937,-5.9091 4.41484,-3.19227 -13.176607,-16.16512 -14.874626,10.66355 z"
       id="path1" /><path
       style="fill:#ffffff;fill-opacity:1;stroke-width:1"
       d="m 77.429565,172.85811 17.727294,-6.04494 1.83386,4.95821 5.433651,0.0679 0.27168,17.79521 -19.69699,-0.13584 z"
       id="path2" /><path
       style="fill:#ffffff;fill-opacity:1;stroke-width:1"
       d="m 106.97506,189.43075 -0.13585,-17.45561 h 6.85999 l 1.56218,-4.41485 17.45561,7.5392 -5.09405,14.53502 z"
       id="path3" /><path
       style="fill:#ffffff;fill-opacity:1;stroke-width:1"
       d="m 133.80372,170.5488 -17.11601,-7.33543 2.03762,-6.45246 -4.34692,-3.12435 13.51621,-16.50473 13.99166,10.45979 z"
       id="path4" /><path
       style="fill:#ffffff;fill-opacity:1;stroke-width:1"
       d="m 100.25091,150.64805 4.68652,-3.46396 5.5695,3.73564 13.58413,-15.82552 -18.94986,-13.58413 -18.134822,13.10869 z"
       id="path5" /></g></svg>
